<svg width="159" height="48" viewBox="0 0 159 48" fill="none" xmlns="http://www.w3.org/2000/svg">
<rect width="159" height="48" fill="#E5E5E5"/>
<g clip-path="url(#clip0)">
<rect width="1920" height="4411" transform="translate(-572 -621)" fill="white"/>
<rect x="1348" y="-632" width="840" height="1920" transform="rotate(90 1348 -632)" fill="#7AFFC7"/>
<g style="mix-blend-mode:luminosity">
<path d="M9.50206 34.133L12.0266 34.3626C12.0266 32.3411 12.0884 31.0524 12.0884 31.0524C8.31584 30.9789 4.55264 30.6486 0.824951 30.0637C2.13252 34.9056 4.93422 39.2117 8.8312 42.3688C6.79212 33.1797 7.34823 33.8859 9.50206 34.133Z" fill="#FCB034"/>
<path d="M34.9944 2.77022C28.1017 -0.879232 19.8595 -0.925388 12.9264 2.64664C12.3167 4.45986 11.9921 6.35675 11.9643 8.26955C16.3487 7.64615 20.7786 7.40103 25.205 7.53689C28.2769 7.53689 28.4799 7.64282 28.886 8.70208V11.7739C31.5871 11.7739 34.1823 11.7739 36.442 11.9063C36.4417 8.80388 35.9532 5.7208 34.9944 2.77022Z" fill="#6EB43F"/>
<path d="M15.8927 40.5417C13.986 40.2858 14.0655 39.5001 14.0566 38.9529C14.0566 38.7851 14.0566 36.9667 13.9772 34.5393C11.6115 34.3451 9.95199 34.195 9.51946 34.1509C7.34798 33.8949 6.79186 33.1975 8.83094 42.369C18.9593 50.5817 33.8073 49.1303 42.1535 39.1117C38.3578 40.0563 30.4663 41.2303 15.8927 40.5417Z" fill="#F15C22"/>
<path d="M34.9944 2.77026C36.7599 7.27212 36.4598 15.1283 36.5039 15.5961C36.548 16.064 36.1773 17.3616 39.0196 17.2998C41.6816 17.2896 44.3395 17.5082 46.9641 17.953C45.2912 11.4319 40.945 5.91902 34.9944 2.77026Z" fill="#626364"/>
<path d="M15.2391 19.0123C16.1925 19.0123 22.0007 18.9063 28.983 18.9505L28.8683 8.75508C28.4534 7.69582 28.2592 7.61637 25.1874 7.58989C18.3306 7.40868 11.4772 8.06378 4.77892 9.5407C0.683299 15.0017 -0.881204 21.9536 0.480088 28.6427C3.74614 28.8987 8.93652 29.0752 13.8621 29.1723L13.712 20.3452C13.712 20.3452 13.456 19.0123 15.2391 19.0123Z" fill="#002D62"/>
<path d="M47.2904 19.4183C41.8706 19.0475 34.9942 18.9151 28.9741 18.871L29.0712 27.4157C29.0712 27.4157 29.3095 29.1811 26.6613 29.1811C25.2931 29.1811 19.7673 29.1811 13.8619 29.0752C13.9414 33.7448 14.0297 38.5732 14.0297 38.8557C14.0297 39.403 13.959 40.1798 15.8657 40.4446C30.4659 41.1419 38.3662 39.9591 42.153 39.0322C45.7297 34.7731 47.6978 29.3936 47.7142 23.8318C47.7091 22.3507 47.5673 20.8733 47.2904 19.4183Z" fill="#0D5CAB"/>
<path d="M29.0713 27.4599L28.9742 18.9152C21.9919 18.9152 16.1836 18.9152 15.2303 18.977C13.4649 18.977 13.7032 20.3099 13.7032 20.3099L13.8532 29.137C19.7586 29.2606 25.2756 29.2783 26.6526 29.243C29.3185 29.1988 29.0713 27.4599 29.0713 27.4599Z" fill="#B1BCE0"/>
<path d="M59.3928 14.9253H55.756V31.4586H59.3928V14.9253Z" fill="#002D62"/>
<path d="M61.5459 19.4888H64.6707V21.1836H64.7413C65.5311 19.9299 66.9141 19.1749 68.3958 19.1887C71.9266 19.1887 72.8093 21.1571 72.8093 24.1231V31.4849H69.4903V24.7145C69.4903 22.746 68.9077 21.775 67.3806 21.775C65.6152 21.775 64.8384 22.7725 64.8384 25.2088V31.4761H61.5459V19.4888Z" fill="#002D62"/>
<path d="M78.847 19.4888H81.2568V21.6603H78.847V27.5833C78.847 28.6956 79.1206 28.9692 80.2329 28.9692C80.5733 28.9735 80.9134 28.9439 81.248 28.8809V31.4496C80.6133 31.5368 79.973 31.5752 79.3325 31.5644C77.3199 31.5644 75.5544 31.1054 75.5544 28.722V21.6603H73.5683V19.4888H75.5633V15.8873H78.8558L78.847 19.4888Z" fill="#002D62"/>
<path d="M85.2829 26.277C85.38 28.3602 86.3951 29.3135 88.2223 29.3135C89.3228 29.3715 90.3488 28.7573 90.8175 27.7599H93.7128C93.0591 30.2764 90.7006 31.9664 88.1076 31.7763C84.3384 31.7763 81.9903 29.1811 81.9903 25.4737C81.9037 23.8841 82.4521 22.3252 83.5149 21.1399C84.5777 19.9546 86.0678 19.24 87.6574 19.1534H88.1076C92.1857 19.1534 94.1542 22.5784 93.9159 26.2681L85.2829 26.277ZM90.6321 24.1938C90.332 22.5254 89.617 21.6427 87.984 21.6427C87.2955 21.6042 86.6199 21.8413 86.1065 22.3018C85.5931 22.7622 85.284 23.408 85.2476 24.0967V24.1938H90.6321Z" fill="#002D62"/>
<path d="M95.3812 19.5329H98.506V21.7574H98.5501C99.2209 20.2051 100.752 19.2017 102.443 19.2063C102.686 19.2082 102.927 19.2469 103.158 19.3211V22.3753C102.768 22.2973 102.372 22.2589 101.975 22.2605C99.5653 22.2605 98.7355 24.026 98.7355 26.1003V31.4937H95.3812V19.5329Z" fill="#002D62"/>
<path d="M104.349 19.5505H107.474V21.1836H107.545C108.348 19.9353 109.741 19.1933 111.225 19.2239C114.756 19.2239 115.639 21.1924 115.639 24.1583V31.5202H112.355V24.7144C112.355 22.746 111.773 21.775 110.246 21.775C108.48 21.775 107.703 22.7725 107.703 25.1999V31.4761H104.411L104.349 19.5505Z" fill="#002D62"/>
<path d="M120.097 26.277C120.185 28.3602 121.209 29.3135 123.036 29.3135C124.137 29.374 125.165 28.759 125.631 27.7599H128.527C127.873 30.2764 125.514 31.9664 122.921 31.7763C119.152 31.7763 116.813 29.1811 116.813 25.4737C116.726 23.8841 117.275 22.3252 118.338 21.1399C119.4 19.9546 120.89 19.24 122.48 19.1534H122.921C127 19.1534 128.968 22.5784 128.739 26.2681L120.097 26.277ZM125.446 24.1938C125.146 22.5254 124.422 21.6427 122.798 21.6427C122.109 21.614 121.438 21.8603 120.931 22.3273C120.424 22.7942 120.124 23.4435 120.097 24.132V24.1849L125.446 24.1938Z" fill="#002D62"/>
<path d="M143.604 31.4584H140.223L138.096 23.4257H138.052L136.013 31.4584H132.606L128.81 19.4888H132.288L134.486 27.6186H134.53L136.516 19.4888H139.711L141.751 27.5921H141.804L144.001 19.4888H147.382L143.604 31.4584Z" fill="#002D62"/>
<path d="M150.621 27.5657C150.621 29.0046 151.848 29.5783 153.146 29.5783C154.099 29.5783 155.299 29.2076 155.299 28.0512C155.299 27.0538 153.931 26.7095 151.574 26.1975C149.677 25.7827 147.779 25.1118 147.779 23.0021C147.779 19.9479 150.427 19.1534 152.987 19.1534C155.547 19.1534 158.009 20.0362 158.283 22.9756H155.158C155.07 21.7045 154.09 21.3514 152.916 21.3514C152.175 21.3514 151.089 21.4926 151.089 22.4636C151.089 23.6465 152.943 23.8054 154.823 24.2291C156.703 24.6528 158.618 25.3678 158.618 27.5922C158.618 30.7435 155.891 31.7586 153.154 31.7586C150.418 31.7586 147.664 30.717 147.532 27.5393L150.621 27.5657Z" fill="#002D62"/>
</g>
</g>
<defs>
<clipPath id="clip0">
<rect width="1920" height="4411" fill="white" transform="translate(-572 -621)"/>
</clipPath>
</defs>
</svg>
