<svg width="200" height="60" viewBox="0 0 200 60" fill="none" xmlns="http://www.w3.org/2000/svg">
<path d="M12.7505 42.8619L15.9207 43.1501C15.9207 40.6118 15.9983 38.9934 15.9983 38.9934C11.2609 38.9012 6.53536 38.4864 1.8544 37.752C3.49635 43.8321 7.01452 49.2393 11.9081 53.2038C9.34754 41.6648 10.0459 42.5516 12.7505 42.8619Z" fill="#FCB034"/>
<path d="M44.7619 3.47864C36.1066 -1.10408 25.7567 -1.16204 17.0506 3.32345C16.2849 5.60037 15.8773 7.98234 15.8424 10.3843C21.348 9.60148 26.9108 9.29367 32.4692 9.46428C36.3266 9.46428 36.5815 9.5973 37.0914 10.9274V14.7849C40.4833 14.7849 43.7421 14.7849 46.5798 14.9511C46.5794 11.0553 45.9659 7.18376 44.7619 3.47864Z" fill="#6EB43F"/>
<path d="M20.7754 50.9094C18.3811 50.5879 18.4809 49.6014 18.4698 48.9142C18.4698 48.7036 18.4698 46.4201 18.37 43.3719C15.3994 43.128 13.3155 42.9396 12.7724 42.8842C10.0456 42.5627 9.34723 41.6871 11.9078 53.2039C24.6262 63.5168 43.2712 61.6943 53.7518 49.1137C48.9855 50.2997 39.0759 51.774 20.7754 50.9094Z" fill="#F15C22"/>
<path d="M44.762 3.47876C46.9789 9.13187 46.602 18.9971 46.6574 19.5846C46.7129 20.1721 46.2473 21.8015 49.8165 21.7239C53.1592 21.7112 56.4969 21.9856 59.7926 22.5441C57.6919 14.3554 52.2342 7.43274 44.762 3.47876Z" fill="#626364"/>
<path d="M19.9547 23.8742C21.1518 23.8742 28.4454 23.7411 37.2133 23.7966L37.0692 10.9939C36.5482 9.66379 36.3044 9.56403 32.447 9.53078C23.8367 9.30322 15.2308 10.1258 6.81952 11.9805C1.67653 18.838 -0.288055 27.5677 1.42136 35.9674C5.52263 36.2888 12.0403 36.5105 18.2255 36.6324L18.0371 25.5479C18.0371 25.5479 17.7156 23.8742 19.9547 23.8742Z" fill="#002D62"/>
<path d="M60.2024 24.3841C53.3965 23.9186 44.7617 23.7523 37.202 23.6969L37.324 34.4267C37.324 34.4267 37.6232 36.6436 34.2979 36.6436C32.5798 36.6436 25.6409 36.6436 18.2253 36.5106C18.3251 42.3743 18.4359 48.4376 18.4359 48.7923C18.4359 49.4795 18.3473 50.4549 20.7415 50.7875C39.0753 51.6632 48.996 50.1778 53.7512 49.014C58.2426 43.6656 60.714 36.9104 60.7345 29.9264C60.7281 28.0665 60.55 26.2112 60.2024 24.3841Z" fill="#0D5CAB"/>
<path d="M37.3241 34.4821L37.2022 23.7523C28.4343 23.7523 21.1407 23.7523 19.9436 23.8299C17.7267 23.8299 18.026 25.5037 18.026 25.5037L18.2144 36.5882C25.6299 36.7434 32.5578 36.7656 34.287 36.7212C37.6345 36.6658 37.3241 34.4821 37.3241 34.4821Z" fill="#B1BCE0"/>
<path d="M75.3996 18.7421H70.8328V39.5034H75.3996V18.7421Z" fill="#002D62"/>
<path d="M78.1033 24.4727H82.0272V26.6009H82.1159C83.1077 25.0266 84.8443 24.0786 86.7049 24.0958C91.1387 24.0958 92.2472 26.5677 92.2472 30.2921V39.5366H88.0794V31.0347C88.0794 28.5629 87.3478 27.3436 85.4302 27.3436C83.2133 27.3436 82.2378 28.5961 82.2378 31.6555V39.5255H78.1033V24.4727Z" fill="#002D62"/>
<path d="M99.8288 24.4727H102.855V27.1995H99.8288V34.6372C99.8288 36.0338 100.172 36.3775 101.569 36.3775C101.997 36.3828 102.424 36.3457 102.844 36.2666V39.4922C102.047 39.6017 101.243 39.6499 100.438 39.6363C97.9112 39.6363 95.6942 39.0599 95.6942 36.0671V27.1995H93.2002V24.4727H95.7053V19.9502H99.8399L99.8288 24.4727Z" fill="#002D62"/>
<path d="M107.911 32.9967C108.032 35.6127 109.307 36.8098 111.602 36.8098C112.984 36.8826 114.272 36.1113 114.861 34.8589H118.496C117.675 38.0189 114.714 40.1411 111.458 39.9024C106.724 39.9024 103.776 36.6435 103.776 31.988C103.667 29.9919 104.356 28.0343 105.69 26.5459C107.025 25.0575 108.896 24.1603 110.892 24.0515H111.458C116.579 24.0515 119.05 28.3523 118.751 32.9856L107.911 32.9967ZM114.628 30.3808C114.251 28.2858 113.353 27.1774 111.302 27.1774C110.438 27.129 109.589 27.4268 108.945 28.0049C108.3 28.5831 107.912 29.3941 107.866 30.2588V30.3808H114.628Z" fill="#002D62"/>
<path d="M120.591 24.5281H124.515V27.3214H124.571C125.413 25.3721 127.335 24.1122 129.459 24.1179C129.764 24.1203 130.066 24.1689 130.357 24.262V28.0973C129.868 27.9994 129.37 27.9512 128.871 27.9532C125.845 27.9532 124.803 30.1701 124.803 32.775V39.5476H120.591V24.5281Z" fill="#002D62"/>
<path d="M131.852 24.5502H135.776V26.6008H135.865C136.874 25.0333 138.624 24.1016 140.487 24.1401C144.921 24.1401 146.03 26.6119 146.03 30.3363V39.5808H141.906V31.0346C141.906 28.5628 141.175 27.3435 139.257 27.3435C137.04 27.3435 136.065 28.596 136.065 31.6443V39.5254H131.93L131.852 24.5502Z" fill="#002D62"/>
<path d="M151.627 32.9967C151.738 35.6127 153.024 36.8098 155.318 36.8098C156.701 36.8857 157.991 36.1135 158.577 34.8589H162.213C161.392 38.0189 158.43 40.1411 155.174 39.9024C150.441 39.9024 147.504 36.6435 147.504 31.988C147.395 29.9919 148.084 28.0343 149.418 26.5459C150.753 25.0575 152.624 24.1603 154.62 24.0515H155.174C160.295 24.0515 162.767 28.3523 162.479 32.9856L151.627 32.9967ZM158.344 30.3808C157.968 28.2858 157.059 27.1774 155.019 27.1774C154.155 27.1413 153.311 27.4506 152.675 28.037C152.039 28.6233 151.662 29.4386 151.627 30.3032V30.3697L158.344 30.3808Z" fill="#002D62"/>
<path d="M181.146 39.5032H176.901L174.229 29.4162H174.174L171.614 39.5032H167.335L162.569 24.4725H166.936L169.696 34.6814H169.751L172.245 24.4725H176.258L178.818 34.6481H178.885L181.645 24.4725H185.89L181.146 39.5032Z" fill="#002D62"/>
<path d="M189.957 34.6151C189.957 36.4218 191.498 37.1423 193.128 37.1423C194.325 37.1423 195.832 36.6768 195.832 35.2247C195.832 33.9722 194.114 33.5399 191.155 32.897C188.771 32.376 186.388 31.5336 186.388 28.8844C186.388 25.0491 189.714 24.0515 192.928 24.0515C196.143 24.0515 199.235 25.16 199.579 28.8511H195.655C195.544 27.2549 194.314 26.8116 192.839 26.8116C191.908 26.8116 190.545 26.9889 190.545 28.2082C190.545 29.6935 192.873 29.8931 195.234 30.4251C197.595 30.9572 200 31.855 200 34.6483C200 38.6055 196.575 39.8802 193.139 39.8802C189.703 39.8802 186.244 38.5722 186.078 34.5818L189.957 34.6151Z" fill="#002D62"/>
</svg>
