<?xml version="1.0" standalone="no"?>
<!DOCTYPE svg PUBLIC "-//W3C//DTD SVG 20010904//EN"
 "http://www.w3.org/TR/2001/REC-SVG-20010904/DTD/svg10.dtd">
<svg version="1.0" xmlns="http://www.w3.org/2000/svg"
 width="700.000000pt" height="700.000000pt" viewBox="0 0 700.000000 700.000000"
 preserveAspectRatio="xMidYMid meet">
<metadata>
Created by potrace 1.14, written by Peter Selinger 2001-2017
</metadata>
<g transform="translate(0.000000,700.000000) scale(0.100000,-0.100000)"
fill="#000000" stroke="none">
<path d="M2684 6769 c-2 -3 -3 -369 -3 -814 0 -444 -3 -810 -6 -814 -3 -3
-371 -5 -818 -6 l-812 0 0 -815 0 -815 1637 -3 1637 -2 0 -818 0 -818 -1617 1
c-889 0 -1626 -1 -1637 -3 -20 -3 -20 -10 -20 -818 0 -716 2 -814 15 -815 8
-1 1112 -2 2452 -3 2159 -1 2437 1 2440 14 2 8 4 744 3 1635 l0 1620 -818 3
c-769 2 -817 3 -817 20 -1 23 -1 1480 0 1557 l0 61 811 -1 c529 0 813 3 818
10 4 6 7 374 7 820 l-1 810 -1633 0 c-899 0 -1636 -3 -1638 -6z"/>
</g>
</svg>
