<svg xmlns="http://www.w3.org/2000/svg" width="496.7" height="157.3" fill="#541ec5"><path d="M206.3 51.5c-17.6 0-26.8 8.9-30 19.1l15.8 5.3c1.2-6.1 5.3-10.8 13.9-10.8s12.6 4.9 12.6 11.2v3.8H200c-15.3 0-26.2 7.2-26.2 21.2s10.9 21.7 24.9 21.7c12.6 0 17.1-6.8 18.3-9.8h1.9v7.9h16.4V77.5c-.1-16.9-11.3-26-29-26zm12.3 42.6c0 9-6.8 15-16.4 15-7.4 0-11.2-3.4-11.2-8.2s3.8-7.9 10.2-7.9h17.3zm72.9-32h-1.4c-3.8-5.5-10.4-10.7-22.1-10.7-16.1 0-30.6 13.7-30.6 35.8S251.9 123 268 123c11.8 0 18.3-5.2 22.4-11.1h1.4v9.1h16.9V25.5h-17.2zm-18.3 46.2c-10.6 0-18.6-7.6-18.6-21s7.9-21 18.6-21 18.6 7.6 18.6 21-7.9 21-18.6 21zM345 51.5c-17.6 0-26.8 8.9-30 19.1l15.8 5.3c1.2-6.1 5.3-10.8 13.9-10.8s12.6 4.9 12.6 11.2v3.8h-18.6c-15.3 0-26.2 7.2-26.2 21.2s10.9 21.7 24.9 21.7c12.6 0 17.1-6.8 18.3-9.8h1.9v7.9H374V77.5c-.1-16.9-11.2-26-29-26zm12.3 42.6c0 9-6.8 15-16.4 15-7.4 0-11.2-3.4-11.2-8.2s3.8-7.9 10.2-7.9h17.4zM421 53.4c-11.7 0-18.3 5.2-22.4 11.1h-1.4v-9.2h-16.9v95h17.2v-36h1.4c3.8 5.5 10.4 10.6 22.1 10.6 16.1 0 30.6-13.7 30.6-35.8S437.1 53.4 421 53.4zm-5.2 56.8c-10.6 0-18.6-7.6-18.6-21s7.9-21 18.6-21 18.6 7.6 18.6 21-8 21-18.6 21zm80.9-41V55.3h-18.6v-21h-17.2v21h-18.3c4.6 3.8 8.2 8.5 10.6 13.9h7.6v38.5c0 9.3 6 15.3 15 15.3h19.1v-13.9h-13.1c-2.5 0-3.8-1.4-3.8-4.1V69.2zM0 39.3v39.4h39.3 39.4V39.3H118V0H39.3v39.3z"/><path d="M39.3 118H0v39.3h39.3 39.4 0H118V118h0V78.7H78.7V118z"/></svg>