<svg width="166" height="54" viewBox="0 0 166 54" fill="none" xmlns="http://www.w3.org/2000/svg">
<path d="M58.602 24.4383L63.869 26.2091C64.2777 24.1659 65.6398 22.6221 68.5004 22.6221C71.4063 22.6221 72.6777 24.2567 72.6777 26.3453V27.6167H66.5025C61.4172 27.6167 57.7847 30.0232 57.7847 34.6545C57.7847 39.2858 61.4171 41.8739 66.0485 41.8739C70.2258 41.8739 71.7241 39.6037 72.1328 38.6048H72.7685V41.2383H78.2171V26.754C78.2171 21.1237 74.4939 18.0816 68.5912 18.0816C62.7339 18.0816 59.6917 21.0329 58.602 24.4383ZM63.5058 34.5183C63.5058 32.9745 64.7771 31.8848 66.9112 31.8848H72.6777V32.248C72.6777 35.2448 70.4074 37.2426 67.229 37.2426C64.7771 37.2426 63.5058 36.1075 63.5058 34.5183Z" fill="#C50083"/>
<path d="M102.655 9.45459H96.9343V21.6232H96.4803C95.209 19.807 93.0295 18.0816 89.1246 18.0816C83.7668 18.0816 78.9539 22.6221 78.9539 29.9778C78.9539 37.3334 83.7668 41.8739 89.1246 41.8739C93.0295 41.8739 95.2089 40.1486 96.5711 38.1961H97.0252V41.2383H102.655V9.45459ZM90.85 22.9854C94.3917 22.9854 97.0252 25.5281 97.0252 29.9778C97.0252 34.4275 94.3917 36.9702 90.85 36.9702C87.3084 36.9702 84.6749 34.4275 84.6749 29.9778C84.6749 25.5281 87.3084 22.9854 90.85 22.9854Z" fill="#C50083"/>
<path d="M104.722 24.4383L109.989 26.2091C110.398 24.1659 111.76 22.6221 114.62 22.6221C117.526 22.6221 118.798 24.2567 118.798 26.3453V27.6167H112.623C107.537 27.6167 103.905 30.0232 103.905 34.6545C103.905 39.2858 107.537 41.8739 112.169 41.8739C116.346 41.8739 117.844 39.6037 118.253 38.6048H118.889V41.2383H124.337V26.754C124.337 21.1237 120.614 18.0816 114.711 18.0816C108.854 18.0816 105.812 21.0329 104.722 24.4383ZM109.626 34.5183C109.626 32.9745 110.897 31.8848 113.031 31.8848H118.798V32.248C118.798 35.2448 116.527 37.2426 113.349 37.2426C110.897 37.2426 109.626 36.1075 109.626 34.5183Z" fill="#C50083"/>
<path d="M126.437 50.9633H132.158V38.9763H132.612C133.883 40.7925 136.063 42.5179 139.968 42.5179C145.325 42.5179 150.138 37.9774 150.138 30.6218C150.138 23.2661 145.325 18.7256 139.968 18.7256C136.063 18.7256 133.883 20.451 132.521 22.4034H132.067V19.3613H126.437V50.9633ZM138.242 37.6142C134.701 37.6142 132.067 35.0715 132.067 30.6218C132.067 26.1721 134.701 23.6294 138.242 23.6294C141.784 23.6294 144.417 26.1721 144.417 30.6218C144.417 35.0715 141.784 37.6142 138.242 37.6142Z" fill="#C50083"/>
<path d="M147.173 19.3613C148.635 20.551 149.849 22.1193 150.703 23.9926H153.243V36.7969C153.243 39.8845 155.24 41.8823 158.237 41.8823H164.594V37.251H160.235C159.418 37.251 158.964 36.7969 158.964 35.8888V23.9926H165.139V19.3613H158.964V12.3689H153.243V19.3613H147.173Z" fill="#C50083"/>
<path d="M26.1589 14.0475L26.1589 0.968994L13.0804 0.968993L13.0804 14.0475L26.1589 14.0475Z" fill="#C50083"/>
<path d="M13.0804 14.0481L26.1588 14.0481L26.1588 27.1266L13.0804 27.1266L13.0804 14.0481Z" fill="#C50083"/>
<path d="M0.000154495 14.0481L13.0786 14.0481L13.0786 27.1266L0.000154495 27.1266L0.000154495 14.0481Z" fill="#C50083"/>
<path d="M26.1573 0.968994L39.2357 0.968994L39.2357 14.0475L26.1573 14.0475L26.1573 0.968994Z" fill="#C50083"/>
<path d="M39.2337 40.2043L26.1553 40.2043L26.1553 27.1259L39.2337 27.1259L39.2337 40.2043Z" fill="#C50083"/>
<path d="M13.0785 53.2825L0 53.2825L9.06215e-07 40.204L13.0785 40.204L13.0785 53.2825Z" fill="#C50083"/>
<path d="M13.0786 40.204L13.0786 53.2825L26.157 53.2825L26.157 40.204L13.0786 40.204Z" fill="#C50083"/>
<path d="M26.1553 40.204L26.1553 53.2825L39.2337 53.2825L39.2337 40.204L26.1553 40.204Z" fill="#C50083"/>
</svg>
