<svg width="165" height="40" viewBox="0 0 165 40" fill="none" xmlns="http://www.w3.org/2000/svg">
<g clip-path="url(#clip0)">
<path d="M155.327 0H9.5347C9.168 0 8.8057 0 8.4399 0.002C8.1338 0.0039 7.8301 0.0098 7.521 0.0146C6.8555 0.0312 6.1816 0.0723 5.5171 0.1914C4.8477 0.3086 4.2256 0.5088 3.6162 0.8184C3.0176 1.125 2.4707 1.5234 1.9976 1.9971C1.519 2.4707 1.1226 3.0195 0.8193 3.6182C0.5083 4.2266 0.311 4.8516 0.1943 5.5215C0.0737 6.1836 0.0322 6.8535 0.0151 7.5235C0.0059 7.8301 0.0049 8.1377 0 8.4443C0 8.8066 0 9.1699 0 9.5361V30.4648C0 30.834 0 31.1953 0 31.5586C0.0049 31.8691 0.0059 32.1699 0.0151 32.4805C0.0322 33.1504 0.0737 33.8203 0.1943 34.4824C0.311 35.1523 0.5083 35.7803 0.8193 36.3867C1.1225 36.9824 1.519 37.5313 1.9975 38.001C2.4706 38.4785 3.0175 38.876 3.6162 39.1797C4.2256 39.4922 4.8476 39.6895 5.5171 39.8105C6.1816 39.9297 6.8555 39.9688 7.521 39.9873C7.8301 39.9941 8.1338 39.998 8.4399 39.998C8.8057 40 9.168 40 9.5347 40H155.327C155.687 40 156.052 40 156.411 39.998C156.716 39.998 157.029 39.9941 157.333 39.9873C158.003 39.9688 158.675 39.9297 159.333 39.8105C160.003 39.6895 160.626 39.4922 161.242 39.1797C161.839 38.876 162.386 38.4785 162.859 38.001C163.335 37.5313 163.732 36.9824 164.04 36.3867C164.347 35.7803 164.546 35.1523 164.659 34.4824C164.782 33.8203 164.822 33.1504 164.845 32.4805C164.849 32.1699 164.849 31.8691 164.849 31.5586C164.857 31.1953 164.857 30.834 164.857 30.4648V9.5361C164.857 9.1699 164.857 8.8066 164.849 8.4443C164.849 8.1377 164.849 7.83 164.845 7.5234C164.822 6.8535 164.782 6.1836 164.659 5.5214C164.546 4.8515 164.347 4.2265 164.04 3.6181C163.732 3.0195 163.335 2.4706 162.859 1.997C162.386 1.5234 161.839 1.1249 161.242 0.8183C160.626 0.5087 160.003 0.3085 159.333 0.1913C158.675 0.0722 158.003 0.0311 157.333 0.0145C157.029 0.0096 156.716 0.0038 156.411 0.0018C156.052 0 155.687 0 155.327 0Z" fill="#A6A6A6"/>
<path d="M8.44475 39.125C8.14005 39.125 7.84275 39.1211 7.54045 39.1143C6.98135 39.0986 6.31825 39.0674 5.67135 38.9512C5.06095 38.8408 4.51855 38.6611 4.01465 38.4033C3.49315 38.1387 3.02445 37.7969 2.61765 37.3867C2.20355 36.9805 1.86325 36.5137 1.59715 35.9902C1.33785 35.4854 1.16065 34.9434 1.05415 34.333C0.932047 33.6602 0.900847 32.9775 0.887647 32.458C0.881347 32.2471 0.873047 31.5449 0.873047 31.5449V8.4443C0.873047 8.4443 0.881847 7.7529 0.887647 7.5498C0.900847 7.0259 0.932047 6.3438 1.05315 5.6777C1.16015 5.064 1.33735 4.5225 1.59665 4.0156C1.86225 3.4912 2.20305 3.022 2.61175 2.6177C3.02535 2.2036 3.49605 1.8609 4.01405 1.5952C4.52775 1.3345 5.06925 1.1562 5.66735 1.0513C6.34065 0.9307 7.02335 0.9004 7.54285 0.8872L8.44525 0.875H156.406L157.319 0.8877C157.832 0.9004 158.515 0.9307 159.178 1.0503C159.78 1.1558 160.325 1.335 160.849 1.5982C161.361 1.8609 161.831 2.2037 162.24 2.6138C162.65 3.02 162.992 3.4917 163.264 4.0181C163.522 4.5293 163.697 5.0708 163.799 5.667C163.915 6.2979 163.951 6.9458 163.973 7.5542C163.976 7.8374 163.976 8.1416 163.976 8.4443C163.984 8.8193 163.984 9.1762 163.984 9.5361V30.4648C163.984 30.8281 163.984 31.1826 163.976 31.54C163.976 31.8652 163.976 32.1631 163.972 32.4697C163.951 33.0586 163.915 33.7061 163.801 34.3232C163.697 34.9365 163.522 35.4785 163.261 35.9932C162.991 36.5127 162.649 36.9824 162.245 37.3789C161.832 37.7969 161.363 38.1377 160.846 38.4014C160.327 38.665 159.798 38.8398 159.178 38.9512C158.537 39.0674 157.874 39.0986 157.309 39.1143C157.016 39.1211 156.709 39.125 156.411 39.125L155.327 39.127L8.44475 39.125Z" fill="black"/>
<path fill-rule="evenodd" clip-rule="evenodd" d="M32.182 29.2281C31.9374 29.8494 31.373 30.7242 30.5726 31.3404C30.1105 31.6963 29.5588 32.0365 28.801 32.261C27.9932 32.5004 26.9982 32.5813 25.7598 32.5813H14.4365C13.1982 32.5813 12.2032 32.5004 11.3953 32.261C10.6375 32.0365 10.0859 31.6963 9.6237 31.3404C8.8234 30.7241 8.2589 29.8494 8.0143 29.2281C7.5216 27.9763 7.5166 26.556 7.5166 25.6615V14.3381C7.5166 13.4436 7.5216 12.0233 8.0143 10.7715C8.2589 10.1502 8.8233 9.27543 9.6237 8.65923C10.0858 8.30333 10.6375 7.96313 11.3953 7.73863C12.2031 7.49923 13.1981 7.41833 14.4365 7.41833H25.7599C26.9982 7.41833 27.9932 7.49923 28.8011 7.73863C29.5589 7.96313 30.1105 8.30343 30.5727 8.65923C31.373 9.27553 31.9375 10.1502 32.1821 10.7715C32.6748 12.0233 32.6798 13.4436 32.6798 14.3381V25.6615C32.6797 26.5559 32.6747 27.9762 32.182 29.2281Z" fill="url(#paint0_linear)"/>
<path d="M21.9233 21.8815C21.5457 21.4831 20.8825 21.2277 20.0996 21.2277C19.3166 21.2277 18.6534 21.4831 18.2758 21.8815C18.0788 22.0894 17.9746 22.3025 17.9418 22.6061C17.8782 23.194 17.9139 23.7002 17.9828 24.5095C18.0484 25.2807 18.173 26.3091 18.3356 27.3565C18.4513 28.1019 18.5453 28.5042 18.6309 28.7923C18.7697 29.2592 19.2884 29.6675 20.0996 29.6675C20.9107 29.6675 21.4294 29.2591 21.5682 28.7923C21.6538 28.5042 21.7478 28.1019 21.8635 27.3565C22.0261 26.3091 22.1507 25.2807 22.2163 24.5095C22.2852 23.7001 22.3209 23.1939 22.2573 22.6061C22.2245 22.3026 22.1203 22.0894 21.9233 21.8815ZM18.0422 18.3342C18.0422 19.4715 18.9642 20.3935 20.1015 20.3935C21.2389 20.3935 22.1609 19.4715 22.1609 18.3342C22.1609 17.1968 21.2389 16.2748 20.1015 16.2748C18.9642 16.2748 18.0422 17.1968 18.0422 18.3342ZM20.076 10.2072C15.2597 10.2209 11.3132 14.1282 11.2536 18.9442C11.2052 22.8455 13.6956 26.1827 17.1731 27.4059C17.2575 27.4356 17.3432 27.3655 17.3299 27.277C17.2843 26.9741 17.2413 26.6697 17.2018 26.3704C17.1878 26.2646 17.1204 26.1734 17.0227 26.1307C14.2741 24.9299 12.3548 22.1733 12.3856 18.9802C12.426 14.7898 15.8478 11.3736 20.0382 11.3397C24.3221 11.3051 27.8182 14.7799 27.8182 19.0559C27.8182 22.217 25.9073 24.9398 23.1801 26.131C23.0824 26.1737 23.0154 26.2652 23.0015 26.3709C22.962 26.6701 22.919 26.9744 22.8735 27.277C22.8601 27.3655 22.9458 27.4356 23.0302 27.406C26.4745 26.1945 28.9504 22.9092 28.9504 19.056C28.9502 14.1681 24.9669 10.1932 20.076 10.2072ZM19.9161 14.2667C22.6464 14.161 24.9012 16.3514 24.9012 19.0586C24.9012 20.4354 24.3179 21.6784 23.3856 22.5538C23.3065 22.628 23.264 22.7334 23.2701 22.8417C23.2887 23.171 23.2819 23.491 23.26 23.8524C23.2541 23.9487 23.3621 24.0102 23.4418 23.9559C25.0052 22.8875 26.0335 21.091 26.0335 19.0586C26.0335 15.7122 23.2461 13.0045 19.8712 13.1353C16.7348 13.2569 14.2185 15.8428 14.1783 18.9814C14.1519 21.0456 15.1865 22.8743 16.77 23.9561C16.8495 24.0104 16.9572 23.9488 16.9513 23.8526C16.9293 23.491 16.9226 23.171 16.9411 22.8417C16.9472 22.7335 16.9048 22.6281 16.8259 22.554C15.8645 21.6514 15.2741 20.3579 15.3117 18.9299C15.3779 16.4169 17.404 14.364 19.9161 14.2667Z" fill="white"/>
<path d="M46.2227 27.8223H41.4893L40.3526 31.1787H38.3477L42.8311 18.7598H44.9141L49.3975 31.1787H47.3584L46.2227 27.8223ZM41.9795 26.2734H45.7315L43.8819 20.8252H43.8301L41.9795 26.2734Z" fill="white"/>
<path d="M59.0801 26.6523C59.0801 29.4658 57.5742 31.2734 55.3018 31.2734C54.0118 31.2734 52.9873 30.6963 52.4532 29.6894H52.4102V34.1738H50.5518V22.125H52.3506V23.6309H52.3848C52.9014 22.6592 54.003 22.0303 55.2676 22.0303C57.5654 22.0303 59.0801 23.8467 59.0801 26.6523ZM57.1699 26.6523C57.1699 24.8193 56.2226 23.6142 54.7773 23.6142C53.3574 23.6142 52.4023 24.8447 52.4023 26.6523C52.4023 28.4765 53.3574 29.6982 54.7773 29.6982C56.2227 29.6982 57.1699 28.502 57.1699 26.6523Z" fill="white"/>
<path d="M69.0449 26.6523C69.0449 29.4658 67.539 31.2734 65.2666 31.2734C63.9766 31.2734 62.9522 30.6963 62.418 29.6894H62.375V34.1738H60.5166V22.125H62.3154V23.6309H62.3496C62.8662 22.6592 63.9678 22.0303 65.2324 22.0303C67.5303 22.0303 69.0449 23.8467 69.0449 26.6523ZM67.1348 26.6523C67.1348 24.8193 66.1875 23.6142 64.7422 23.6142C63.3223 23.6142 62.3672 24.8447 62.3672 26.6523C62.3672 28.4765 63.3223 29.6982 64.7422 29.6982C66.1875 29.6982 67.1348 28.502 67.1348 26.6523Z" fill="white"/>
<path d="M70.5498 18.7598H72.4092V31.1787H70.5498V18.7598Z" fill="white"/>
<path d="M82.085 28.5195C81.835 30.1631 80.2344 31.291 78.1866 31.291C75.5528 31.291 73.918 29.5264 73.918 26.6953C73.918 23.8555 75.5616 22.0137 78.1084 22.0137C80.6133 22.0137 82.1885 23.7344 82.1885 26.4795V27.1162H75.794V27.2285C75.794 28.7773 76.7667 29.793 78.2295 29.793C79.2617 29.793 80.0713 29.3028 80.3203 28.5196H82.085V28.5195ZM75.8027 25.8174H80.3291C80.2861 24.4317 79.3994 23.5195 78.1084 23.5195C76.8262 23.5195 75.8975 24.4492 75.8027 25.8174Z" fill="white"/>
<path d="M92.0869 18.7598C94.4961 18.7598 96.1748 20.4209 96.1748 22.8399C96.1748 25.2667 94.4619 26.9356 92.0264 26.9356H89.3584V31.1788H87.4307V18.7598H92.0869ZM89.3584 25.3184H91.5703C93.248 25.3184 94.2031 24.4141 94.2031 22.8487C94.2031 21.2823 93.248 20.3863 91.5791 20.3863H89.3584V25.3184Z" fill="white"/>
<path d="M96.8535 26.6523C96.8535 23.8037 98.5312 22.0135 101.147 22.0135C103.772 22.0135 105.442 23.8036 105.442 26.6523C105.442 29.5087 103.781 31.291 101.147 31.291C98.5146 31.291 96.8535 29.5087 96.8535 26.6523ZM103.549 26.6523C103.549 24.6982 102.653 23.5449 101.147 23.5449C99.6415 23.5449 98.746 24.707 98.746 26.6523C98.746 28.6142 99.6415 29.7586 101.147 29.7586C102.653 29.7586 103.549 28.6143 103.549 26.6523Z" fill="white"/>
<path d="M106.747 26.6522C106.747 23.8553 108.287 22.0301 110.533 22.0301C111.833 22.0301 112.857 22.6326 113.373 23.6307H113.408V18.7596H115.275V31.1785H113.468V29.6385H113.434C112.9 30.6707 111.867 31.2733 110.551 31.2733C108.287 31.2733 106.747 29.4491 106.747 26.6522ZM108.648 26.6522C108.648 28.5106 109.596 29.6981 111.041 29.6981C112.47 29.6981 113.425 28.493 113.425 26.6522C113.425 24.827 112.47 23.6141 111.041 23.6141C109.596 23.6142 108.648 24.8104 108.648 26.6522Z" fill="white"/>
<path d="M123.184 25.2402C123.021 24.2851 122.272 23.5713 121.05 23.5713C119.621 23.5713 118.674 24.7676 118.674 26.6524C118.674 28.5801 119.63 29.7413 121.066 29.7413C122.22 29.7413 122.978 29.1651 123.184 28.1153H124.974C124.768 30.0167 123.244 31.2911 121.05 31.2911C118.468 31.2911 116.781 29.5265 116.781 26.6524C116.781 23.8379 118.468 22.0137 121.032 22.0137C123.355 22.0137 124.802 23.4766 124.957 25.2403H123.184V25.2402Z" fill="white"/>
<path d="M126.112 28.6054C126.112 27.0224 127.325 26.0664 129.477 25.9375L131.955 25.7998V25.1112C131.955 24.1044 131.293 23.5361 130.166 23.5361C129.133 23.5361 128.41 24.0272 128.264 24.8104H126.525C126.577 23.1747 128.1 22.0135 130.217 22.0135C132.377 22.0135 133.806 23.1923 133.806 24.9736V31.1786H132.024V29.6894H131.981C131.456 30.6961 130.312 31.3339 129.124 31.3339C127.352 31.334 126.112 30.2323 126.112 28.6054ZM131.955 27.788V27.0907L129.727 27.2285C128.616 27.2978 127.988 27.7793 127.988 28.5536C127.988 29.3456 128.643 29.8623 129.641 29.8623C130.94 29.8623 131.955 28.9667 131.955 27.788Z" fill="white"/>
<path d="M138.993 22.0225C140.999 22.0225 142.436 23.1319 142.479 24.7325H140.731C140.654 23.9327 139.975 23.4425 138.941 23.4425C137.935 23.4425 137.264 23.9064 137.264 24.6124C137.264 25.1544 137.711 25.5157 138.649 25.7481L140.173 26.1016C141.997 26.5401 142.686 27.211 142.686 28.5371C142.686 30.1719 141.137 31.291 138.925 31.291C136.79 31.291 135.354 30.1972 135.216 28.5449H137.057C137.187 29.414 137.883 29.8789 139.011 29.8789C140.121 29.8789 140.818 29.4228 140.818 28.7002C140.818 28.1406 140.474 27.8398 139.527 27.5986L137.909 27.2031C136.273 26.8066 135.447 25.9717 135.447 24.7158C135.447 23.1152 136.885 22.0225 138.993 22.0225Z" fill="white"/>
<path d="M146.724 19.9818V22.1249H148.445V23.5966H146.724V28.5878C146.724 29.3632 147.068 29.7245 147.825 29.7245C148.015 29.7245 148.316 29.6981 148.437 29.6815V31.1444C148.23 31.1962 147.817 31.2303 147.404 31.2303C145.571 31.2303 144.856 30.5418 144.856 28.786V23.5965H143.54V22.1249H144.856V19.9818H146.724Z" fill="white"/>
<path d="M153.442 22.0225C155.448 22.0225 156.885 23.1319 156.928 24.7325H155.181C155.104 23.9327 154.424 23.4425 153.391 23.4425C152.384 23.4425 151.713 23.9064 151.713 24.6124C151.713 25.1544 152.16 25.5157 153.099 25.7481L154.622 26.1016C156.446 26.5401 157.135 27.211 157.135 28.5371C157.135 30.1719 155.586 31.291 153.374 31.291C151.239 31.291 149.803 30.1972 149.665 28.5449H151.506C151.636 29.414 152.332 29.8789 153.46 29.8789C154.57 29.8789 155.268 29.4228 155.268 28.7002C155.268 28.1406 154.923 27.8398 153.977 27.5986L152.358 27.2031C150.723 26.8066 149.896 25.9717 149.896 24.7158C149.896 23.1152 151.334 22.0225 153.442 22.0225Z" fill="white"/>
<path d="M42.958 14.661H39.2363V8.69421H40.1626V13.8089H42.958V14.661Z" fill="white"/>
<path d="M44.0352 8.82666C44.0352 8.51616 44.2793 8.28076 44.6099 8.28076C44.941 8.28076 45.1846 8.51616 45.1846 8.82666C45.1846 9.13236 44.9409 9.36816 44.6099 9.36816C44.2793 9.36816 44.0352 9.13226 44.0352 8.82666ZM44.1675 10.1582H45.0523V14.6611H44.1675V10.1582Z" fill="white"/>
<path d="M48.131 10.0713C49.1442 10.0713 49.8058 10.5425 49.8922 11.3364H49.0406C48.9576 11.0058 48.6353 10.7949 48.1309 10.7949C47.6343 10.7949 47.2583 11.0303 47.2583 11.3818C47.2583 11.6508 47.4858 11.8203 47.9736 11.9321L48.7221 12.1054C49.5781 12.3041 49.9789 12.6723 49.9789 13.3339C49.9789 14.1816 49.1893 14.748 48.1142 14.748C47.0429 14.748 46.3442 14.2641 46.2656 13.4663H47.1548C47.2666 13.8135 47.5972 14.0283 48.1348 14.0283C48.689 14.0283 49.0821 13.7803 49.0821 13.4204C49.0821 13.1518 48.8712 12.978 48.42 12.8706L47.6344 12.6885C46.7784 12.4859 46.3815 12.1016 46.3815 11.4317C46.3815 10.6333 47.1134 10.0713 48.131 10.0713Z" fill="white"/>
<path d="M52.3467 9.03711V10.1787H53.3223V10.9272H52.3467V13.2426C52.3467 13.7143 52.541 13.9208 52.9834 13.9208C53.1196 13.9208 53.1982 13.9125 53.3223 13.9003V14.6405C53.1778 14.6649 53.0122 14.6859 52.8384 14.6859C51.8501 14.6859 51.4575 14.3382 51.4575 13.4701V10.9271H50.7422V10.1786H51.4575V9.03711H52.3467Z" fill="white"/>
<path d="M58.2535 13.4453C58.0509 14.2519 57.3311 14.748 56.3018 14.748C55.0113 14.748 54.2217 13.8632 54.2217 12.4238C54.2217 10.9848 55.0279 10.0713 56.2974 10.0713C57.5503 10.0713 58.3072 10.9273 58.3072 12.3413V12.6514H55.127V12.7012C55.1563 13.4908 55.6153 13.9912 56.3262 13.9912C56.8638 13.9912 57.232 13.7969 57.3975 13.4453H58.2535ZM55.1271 11.9941H57.4015C57.381 11.2871 56.9508 10.8276 56.2936 10.8276C55.6359 10.8276 55.1769 11.291 55.1271 11.9941Z" fill="white"/>
<path d="M59.5 10.1582H60.356V10.8735H60.4224C60.6412 10.373 61.0879 10.0713 61.7662 10.0713C62.7711 10.0713 63.3253 10.6748 63.3253 11.7461V14.6611H62.4361V11.9692C62.4361 11.2456 62.1216 10.8857 61.4644 10.8857C60.8067 10.8857 60.3892 11.3242 60.3892 12.0268V14.6611H59.5V10.1582Z" fill="white"/>
<path d="M66.9189 12.4077C66.9189 10.956 67.7294 10.0713 69.0444 10.0713C70.3549 10.0713 71.1656 10.9561 71.1656 12.4077C71.1656 13.8672 70.3593 14.748 69.0444 14.748C67.725 14.748 66.9189 13.8672 66.9189 12.4077ZM70.2519 12.4077C70.2519 11.4316 69.8134 10.8608 69.0444 10.8608C68.271 10.8608 67.837 11.4316 67.837 12.4077C67.837 13.3916 68.271 13.958 69.0444 13.958C69.8134 13.958 70.2519 13.3877 70.2519 12.4077Z" fill="white"/>
<path d="M72.3574 10.1582H73.2134V10.8735H73.2798C73.499 10.373 73.9453 10.0713 74.6236 10.0713C75.6285 10.0713 76.1827 10.6748 76.1827 11.7461V14.6611H75.2935V11.9692C75.2935 11.2456 74.979 10.8857 74.3218 10.8857C73.6641 10.8857 73.2466 11.3242 73.2466 12.0268V14.6611H72.3574V10.1582Z" fill="white"/>
</g>
<defs>
<linearGradient id="paint0_linear" x1="20.0982" y1="7.41833" x2="20.0982" y2="32.5813" gradientUnits="userSpaceOnUse">
<stop stop-color="#F452FF"/>
<stop offset="1" stop-color="#832BC1"/>
</linearGradient>
<clipPath id="clip0">
<rect width="164.857" height="40" fill="white"/>
</clipPath>
</defs>
</svg>
