<svg width="158" height="40" viewBox="0 0 158 40" fill="none" xmlns="http://www.w3.org/2000/svg">
<path d="M148.267 0.294678H9.73279C4.5204 0.294678 0.294922 4.51734 0.294922 9.72626V30.2736C0.294922 35.4825 4.5204 39.7052 9.73279 39.7052H148.267C153.48 39.7052 157.705 35.4825 157.705 30.2736V9.72626C157.705 4.51734 153.48 0.294678 148.267 0.294678Z" fill="white" stroke="#9AA0A6" stroke-width="0.56"/>
<path d="M9.13426 18.0098C8.23366 18.0098 7.50488 18.7381 7.50488 19.6381V21.4144C7.50488 22.3144 8.23366 23.0427 9.13426 23.0427C10.0349 23.0427 10.7636 22.3144 10.7636 21.4144V19.6381C10.7636 18.7381 10.0349 18.0098 9.13426 18.0098Z" fill="#0066D9"/>
<path d="M31.9458 18.0098C31.0452 18.0098 30.3164 18.7381 30.3164 19.6381V21.4144C30.3164 22.3144 31.0452 23.0427 31.9458 23.0427C32.8464 23.0427 33.5752 22.3144 33.5752 21.4144V19.6381C33.5752 18.7381 32.8464 18.0098 31.9458 18.0098Z" fill="#4285F4"/>
<path d="M14.7632 23.3387C13.8626 23.3387 13.1338 24.067 13.1338 24.967V26.7434C13.1338 27.6434 13.8626 28.3716 14.7632 28.3716C15.6638 28.3716 16.3925 27.6434 16.3925 26.7434V24.967C16.3925 24.067 15.6638 23.3387 14.7632 23.3387Z" fill="#EA4335"/>
<path d="M14.7632 12.6808C13.8626 12.6808 13.1338 13.4091 13.1338 14.3091V20.1191H13.1353C13.156 21.0013 13.8759 21.7104 14.7632 21.7104C15.6504 21.7104 16.3703 21.0013 16.3911 20.1191H16.3925V14.3091C16.3925 13.4091 15.6638 12.6808 14.7632 12.6808Z" fill="#EA4335"/>
<path d="M26.3169 12.6808C25.4163 12.6808 24.6875 13.4091 24.6875 14.3091V16.0854C24.6875 16.9854 25.4163 17.7137 26.3169 17.7137C27.2175 17.7137 27.9462 16.9854 27.9462 16.0854V14.3091C27.9462 13.4091 27.2175 12.6808 26.3169 12.6808Z" fill="#34A853"/>
<path d="M20.5405 7.49988C19.6399 7.49988 18.9111 8.22817 18.9111 9.12817V10.9045C18.9111 11.8045 19.6399 12.5328 20.5405 12.5328C21.4411 12.5328 22.1699 11.8045 22.1699 10.9045V9.12817C22.1699 8.22817 21.4411 7.49988 20.5405 7.49988Z" fill="#FAB908"/>
<path d="M20.5405 28.5197C19.6399 28.5197 18.9111 29.2479 18.9111 30.1479V31.9243C18.9111 32.8243 19.6399 33.5525 20.5405 33.5525C21.4411 33.5525 22.1699 32.8243 22.1699 31.9243V30.1479C22.1699 29.2479 21.4411 28.5197 20.5405 28.5197Z" fill="#FAB908"/>
<path d="M26.3169 19.342C25.4163 19.342 24.6875 20.0703 24.6875 20.9703V26.7434C24.6875 27.6434 25.4163 28.3716 26.3169 28.3716C27.2175 28.3716 27.9462 27.6434 27.9462 26.7434V20.9703C27.9462 20.0703 27.2175 19.342 26.3169 19.342Z" fill="#34A853"/>
<path d="M22.1699 15.7893C22.1699 14.8893 21.4411 14.161 20.5405 14.161C19.6399 14.161 18.9111 14.8893 18.9111 15.7893V19.7372V21.3166V25.263C18.9111 26.163 19.6399 26.8913 20.5405 26.8913C21.4411 26.8913 22.1699 26.163 22.1699 25.263V21.3151V19.7372V15.7893Z" fill="#FAB908"/>
<path d="M94.1088 30.5894V26.2863H96.4241C97.0139 26.2863 97.5596 26.1536 98.0609 25.8884C98.5623 25.6231 98.963 25.2522 99.2628 24.7757C99.5626 24.2992 99.7126 23.7614 99.7126 23.1621C99.7126 22.5628 99.5626 22.0249 99.2628 21.5484C98.963 21.0719 98.5623 20.701 98.0609 20.4357C97.5596 20.1705 97.0139 20.0378 96.4241 20.0378H92.8701V30.5894H94.1088ZM96.4536 25.0926H94.1088V21.2315H96.4536C96.8468 21.2315 97.1933 21.3249 97.4932 21.5115C97.793 21.6982 98.0265 21.9389 98.1937 22.2336C98.3608 22.5284 98.4444 22.8378 98.4444 23.1621C98.4444 23.4863 98.3608 23.7957 98.1937 24.0905C98.0265 24.3852 97.793 24.6259 97.4932 24.8126C97.1933 24.9992 96.8468 25.0926 96.4536 25.0926ZM103.856 30.8252C104.594 30.8252 105.257 30.6484 105.847 30.2947C106.437 29.941 106.897 29.4596 107.226 28.8505C107.555 28.2413 107.72 27.5684 107.72 26.8315C107.72 26.0947 107.555 25.4217 107.226 24.8126C106.897 24.2035 106.437 23.7221 105.847 23.3684C105.257 23.0147 104.594 22.8378 103.856 22.8378C103.119 22.8378 102.455 23.0147 101.866 23.3684C101.276 23.7221 100.816 24.2035 100.487 24.8126C100.157 25.4217 99.9928 26.0947 99.9928 26.8315C99.9928 27.5684 100.157 28.2413 100.487 28.8505C100.816 29.4596 101.276 29.941 101.866 30.2947C102.455 30.6484 103.119 30.8252 103.856 30.8252ZM103.856 29.6905C103.394 29.6905 102.962 29.575 102.559 29.3442C102.156 29.1133 101.834 28.7817 101.593 28.3494C101.352 27.9171 101.231 27.4112 101.231 26.8315C101.231 26.2519 101.352 25.7459 101.593 25.3136C101.834 24.8814 102.156 24.5498 102.559 24.3189C102.962 24.088 103.394 23.9726 103.856 23.9726C104.318 23.9726 104.749 24.088 105.147 24.3189C105.545 24.5498 105.864 24.8814 106.105 25.3136C106.346 25.7459 106.467 26.2519 106.467 26.8315C106.467 27.4112 106.346 27.9171 106.105 28.3494C105.864 28.7817 105.545 29.1133 105.147 29.3442C104.749 29.575 104.318 29.6905 103.856 29.6905ZM112.159 30.8252C112.739 30.8252 113.255 30.695 113.707 30.4347C114.159 30.1743 114.503 29.8575 114.739 29.4842H114.798V30.5894H115.993V20.0378H114.739V23.1473L114.798 24.1936H114.739C114.503 23.8105 114.159 23.4887 113.707 23.2284C113.255 22.968 112.739 22.8378 112.159 22.8378C111.49 22.8378 110.883 23.0098 110.338 23.3536C109.792 23.6975 109.362 24.174 109.047 24.7831C108.733 25.3922 108.575 26.075 108.575 26.8315C108.575 27.5978 108.733 28.2831 109.047 28.8873C109.362 29.4915 109.792 29.9656 110.338 30.3094C110.883 30.6533 111.49 30.8252 112.159 30.8252ZM112.306 29.6905C111.874 29.6905 111.466 29.5726 111.082 29.3368C110.699 29.101 110.392 28.7645 110.161 28.3273C109.93 27.8901 109.814 27.3915 109.814 26.8315C109.814 26.2715 109.93 25.7729 110.161 25.3357C110.392 24.8985 110.699 24.5621 111.082 24.3263C111.466 24.0905 111.874 23.9726 112.306 23.9726C112.749 23.9726 113.159 24.0905 113.538 24.3263C113.916 24.5621 114.221 24.8961 114.452 25.3284C114.683 25.7606 114.798 26.2617 114.798 26.8315C114.798 27.4014 114.683 27.9024 114.452 28.3347C114.221 28.767 113.916 29.101 113.538 29.3368C113.159 29.5726 112.749 29.6905 112.306 29.6905ZM120.977 30.8252C121.783 30.8252 122.469 30.6336 123.034 30.2505C123.6 29.8673 124.01 29.3663 124.266 28.7473L123.145 28.2757C122.958 28.7277 122.673 29.0764 122.29 29.3221C121.906 29.5677 121.449 29.6905 120.918 29.6905C120.476 29.6905 120.063 29.5701 119.68 29.3294C119.296 29.0887 118.989 28.7522 118.758 28.3199C118.527 27.8877 118.411 27.3915 118.411 26.8315C118.411 26.2715 118.527 25.7754 118.758 25.3431C118.989 24.9108 119.296 24.5743 119.68 24.3336C120.063 24.0929 120.476 23.9726 120.918 23.9726C121.439 23.9726 121.884 24.0929 122.253 24.3336C122.622 24.5743 122.899 24.9256 123.086 25.3873L124.222 24.9157C123.986 24.287 123.59 23.7835 123.034 23.4052C122.479 23.027 121.793 22.8378 120.977 22.8378C120.25 22.8378 119.596 23.0098 119.016 23.3536C118.436 23.6975 117.984 24.174 117.659 24.7831C117.335 25.3922 117.173 26.075 117.173 26.8315C117.173 27.588 117.335 28.2684 117.659 28.8726C117.984 29.4768 118.436 29.9533 119.016 30.3021C119.596 30.6508 120.25 30.8252 120.977 30.8252ZM127.746 30.8252C128.287 30.8252 128.773 30.6975 129.206 30.4421C129.638 30.1866 129.963 29.8771 130.179 29.5136H130.238V30.5894H131.433V25.8294C131.433 24.9059 131.14 24.1764 130.555 23.641C129.97 23.1056 129.167 22.8378 128.144 22.8378C127.515 22.8378 126.942 22.9656 126.426 23.221C125.91 23.4764 125.505 23.8301 125.21 24.2821L126.153 24.9894C126.36 24.6652 126.64 24.4122 126.994 24.2305C127.348 24.0487 127.736 23.9578 128.159 23.9578C128.759 23.9578 129.255 24.1273 129.648 24.4663C130.042 24.8052 130.238 25.2547 130.238 25.8147V26.2715C130.032 26.1438 129.734 26.0308 129.346 25.9326C128.958 25.8343 128.537 25.7852 128.085 25.7852C127.171 25.7852 126.414 26.0087 125.814 26.4557C125.214 26.9028 124.915 27.5242 124.915 28.3199C124.915 28.8014 125.033 29.2312 125.269 29.6094C125.505 29.9877 125.839 30.2849 126.271 30.501C126.704 30.7171 127.195 30.8252 127.746 30.8252ZM127.864 29.7199C127.382 29.7199 126.984 29.5922 126.669 29.3368C126.355 29.0813 126.198 28.7473 126.198 28.3347C126.198 27.8828 126.372 27.5143 126.721 27.2294C127.07 26.9445 127.589 26.8021 128.277 26.8021C128.66 26.8021 129.024 26.8512 129.368 26.9494C129.712 27.0477 130.002 27.1754 130.238 27.3326C130.238 27.7649 130.13 28.1628 129.914 28.5263C129.697 28.8898 129.407 29.1796 129.044 29.3957C128.68 29.6119 128.287 29.7199 127.864 29.7199ZM135.517 30.8252C136.068 30.8252 136.569 30.7319 137.022 30.5452C137.474 30.3585 137.833 30.0908 138.098 29.7421C138.364 29.3933 138.496 28.988 138.496 28.5263C138.496 27.9957 138.31 27.5463 137.936 27.1778C137.562 26.8094 137.007 26.5319 136.27 26.3452L135.178 26.0652C134.746 25.9571 134.421 25.8171 134.205 25.6452C133.989 25.4733 133.881 25.2498 133.881 24.9747C133.881 24.6799 134.035 24.4368 134.345 24.2452C134.655 24.0536 135.016 23.9578 135.429 23.9578C136.284 23.9578 136.879 24.2919 137.213 24.9599L138.305 24.4589C138.088 23.948 137.722 23.5501 137.206 23.2652C136.69 22.9803 136.102 22.8378 135.444 22.8378C134.942 22.8378 134.475 22.9263 134.043 23.1031C133.61 23.2799 133.264 23.5329 133.003 23.8621C132.743 24.1912 132.612 24.5719 132.612 25.0042C132.612 25.5642 132.804 26.021 133.188 26.3747C133.571 26.7284 134.062 26.9789 134.662 27.1263L135.576 27.3621C136.147 27.4996 136.565 27.6642 136.83 27.8557C137.095 28.0473 137.228 28.3003 137.228 28.6147C137.228 28.9684 137.061 29.241 136.727 29.4326C136.392 29.6242 135.989 29.7199 135.517 29.7199C135.075 29.7199 134.67 29.5971 134.301 29.3515C133.932 29.1059 133.654 28.7571 133.468 28.3052L132.347 28.8063C132.573 29.3957 132.956 29.8796 133.497 30.2578C134.038 30.6361 134.711 30.8252 135.517 30.8252ZM142.478 30.7073C142.714 30.7073 142.908 30.6926 143.06 30.6631C143.213 30.6336 143.363 30.5845 143.51 30.5157V29.2926C143.245 29.4596 142.969 29.5431 142.684 29.5431C142.33 29.5431 142.06 29.435 141.873 29.2189C141.716 29.0224 141.637 28.7178 141.637 28.3052V24.2084H143.466V23.0736H141.637V20.9515H140.384V23.0736H139.071V24.2084H140.384V28.6147C140.384 28.9684 140.433 29.268 140.531 29.5136C140.63 29.7592 140.777 29.9754 140.974 30.1621C141.151 30.3291 141.369 30.4617 141.63 30.5599C141.891 30.6582 142.173 30.7073 142.478 30.7073ZM147.551 30.8252C148.101 30.8252 148.603 30.7319 149.055 30.5452C149.507 30.3585 149.866 30.0908 150.131 29.7421C150.397 29.3933 150.53 28.988 150.53 28.5263C150.53 27.9957 150.343 27.5463 149.969 27.1778C149.596 26.8094 149.04 26.5319 148.303 26.3452L147.212 26.0652C146.779 25.9571 146.455 25.8171 146.238 25.6452C146.022 25.4733 145.914 25.2498 145.914 24.9747C145.914 24.6799 146.069 24.4368 146.378 24.2452C146.688 24.0536 147.049 23.9578 147.462 23.9578C148.318 23.9578 148.912 24.2919 149.247 24.9599L150.338 24.4589C150.122 23.948 149.755 23.5501 149.239 23.2652C148.723 22.9803 148.136 22.8378 147.477 22.8378C146.976 22.8378 146.509 22.9263 146.076 23.1031C145.644 23.2799 145.297 23.5329 145.036 23.8621C144.776 24.1912 144.646 24.5719 144.646 25.0042C144.646 25.5642 144.837 26.021 145.221 26.3747C145.604 26.7284 146.096 26.9789 146.695 27.1263L147.61 27.3621C148.18 27.4996 148.598 27.6642 148.863 27.8557C149.129 28.0473 149.261 28.3003 149.261 28.6147C149.261 28.9684 149.094 29.241 148.76 29.4326C148.426 29.6242 148.023 29.7199 147.551 29.7199C147.108 29.7199 146.703 29.5971 146.334 29.3515C145.966 29.1059 145.688 28.7571 145.501 28.3052L144.38 28.8063C144.606 29.3957 144.99 29.8796 145.53 30.2578C146.071 30.6361 146.745 30.8252 147.551 30.8252Z" fill="#3C4043"/>
<path d="M74.3875 22.9614C75.3166 22.9614 76.0506 23.374 76.4291 23.8325H76.4865V23.2021H78.1152V30.1595C78.1152 33.025 76.4291 34.1941 74.4334 34.1941C72.5524 34.1941 71.4169 32.9333 70.9925 31.9017L72.4721 31.2828C72.7359 31.9132 73.3782 32.6582 74.422 32.6582C75.6951 32.6582 76.4865 31.8674 76.4865 30.3888V29.8271H76.4291C76.0506 30.2971 75.3166 30.7097 74.3875 30.7097C72.4492 30.7097 70.6714 29.0133 70.6714 26.847C70.6714 24.6578 72.4492 22.9614 74.3875 22.9614ZM57.5845 23.076C59.7294 23.076 61.4727 24.7036 61.4727 26.9502C61.4727 29.1853 59.7294 30.8243 57.5845 30.8243C55.4397 30.8243 53.6963 29.1853 53.6963 26.9502C53.6963 24.7036 55.4397 23.076 57.5845 23.076ZM66.0721 23.076C68.2169 23.076 69.9603 24.7036 69.9603 26.9502C69.9603 29.1853 68.2169 30.8243 66.0721 30.8243C63.9272 30.8243 62.1839 29.1853 62.1839 26.9502C62.1839 24.7036 63.9272 23.076 66.0721 23.076ZM85.4557 23.076C87.4629 23.076 88.4493 24.6692 88.7705 25.5403L88.9425 25.9759L83.7582 28.1193C84.1597 28.8872 84.7676 29.2884 85.6393 29.2884C86.5109 29.2884 87.1074 28.8643 87.5547 28.2225L88.8737 29.105C88.4378 29.7354 87.417 30.8243 85.6393 30.8243C83.4371 30.8243 81.7969 29.1165 81.7969 26.9502C81.7969 24.6463 83.46 23.076 85.4557 23.076ZM47.5371 18.7205C49.3723 18.7205 50.6798 19.4426 51.6662 20.3824L50.4963 21.5401C49.7967 20.8753 48.8447 20.3595 47.5371 20.3595C45.117 20.3595 43.2246 22.3081 43.2246 24.7265C43.2246 27.145 45.117 29.0936 47.5371 29.0936C49.1085 29.0936 50.0031 28.4632 50.5766 27.8901C51.0468 27.4201 51.3565 26.7439 51.4712 25.8269H47.5371V24.1878H53.077C53.1343 24.4858 53.1687 24.8297 53.1687 25.2194C53.1687 26.4573 52.8361 27.9817 51.7465 29.0592C50.6798 30.1595 49.3264 30.7441 47.5371 30.7441C44.2109 30.7441 41.4238 28.0505 41.4238 24.738C41.4238 21.414 44.2109 18.7205 47.5371 18.7205ZM80.9711 19.1789V30.5607H79.2736V19.1789H80.9711ZM57.5845 24.589C56.4032 24.589 55.3938 25.5403 55.3938 26.9387C55.3938 28.3256 56.4146 29.2884 57.5845 29.2884C58.7544 29.2884 59.7752 28.3256 59.7752 26.9387C59.7752 25.5403 58.7544 24.589 57.5845 24.589ZM66.0721 24.589C64.8907 24.589 63.8814 25.5403 63.8814 26.9387C63.8814 28.3256 64.9022 29.2884 66.0721 29.2884C67.242 29.2884 68.2628 28.3256 68.2628 26.9387C68.2628 25.5403 67.2534 24.589 66.0721 24.589ZM74.5367 24.4858C73.3667 24.4858 72.3804 25.483 72.3804 26.847C72.3804 28.1995 73.3667 29.1853 74.5367 29.1853C75.6951 29.1853 76.6127 28.211 76.6012 26.847C76.6012 25.483 75.6951 24.4858 74.5367 24.4858ZM85.5131 24.5661C84.6414 24.5661 83.4371 25.334 83.483 26.8241L86.9468 25.3913C86.7633 24.8985 86.1898 24.5661 85.5131 24.5661Z" fill="#3C4043"/>
<path d="M46.5339 14.9473V14.1339H42.9566V7.40391H41.9561V14.9473H46.5339ZM48.3546 8.39865C48.5412 8.39865 48.683 8.34684 48.7797 8.24322C48.8765 8.1396 48.9249 8.01008 48.9249 7.85465C48.9249 7.69922 48.8765 7.56797 48.7797 7.4609C48.683 7.35383 48.5412 7.30029 48.3546 7.30029C48.168 7.30029 48.0271 7.35383 47.9321 7.4609C47.837 7.56797 47.7895 7.69922 47.7895 7.85465C47.7895 8.01008 47.837 8.1396 47.9321 8.24322C48.0271 8.34684 48.168 8.39865 48.3546 8.39865ZM48.8264 14.9473V9.34158H47.8673V14.9473H48.8264ZM52.6898 15.051C53.3292 15.051 53.8494 14.8998 54.2503 14.5976C54.6512 14.2954 54.8517 13.8939 54.8517 13.3931C54.8517 13.0926 54.78 12.8378 54.6365 12.6289C54.4931 12.4199 54.2727 12.2412 53.9755 12.0926C53.6783 11.9441 53.2903 11.8163 52.8116 11.7093C52.3329 11.6022 52.002 11.4899 51.8188 11.3725C51.6356 11.2551 51.544 11.0806 51.544 10.8492C51.544 10.604 51.6425 10.4054 51.8395 10.2534C52.0366 10.1014 52.3096 10.0255 52.6587 10.0255C52.9974 10.0255 53.2782 10.1204 53.5011 10.3104C53.7241 10.5004 53.8355 10.7266 53.8355 10.9891H54.7998C54.7998 10.4779 54.602 10.0583 54.2062 9.73014C53.8105 9.40202 53.2946 9.23796 52.6587 9.23796C52.0538 9.23796 51.557 9.39684 51.1682 9.7146C50.7793 10.0324 50.5849 10.4209 50.5849 10.8803C50.5849 11.1566 50.6532 11.3949 50.7897 11.5953C50.9262 11.7956 51.1371 11.9683 51.4222 12.1134C51.7073 12.2584 52.0927 12.3828 52.5783 12.4864C53.0639 12.59 53.4044 12.7135 53.5996 12.8568C53.7949 13.0002 53.8926 13.2014 53.8926 13.4604C53.8926 13.7056 53.7828 13.9016 53.5634 14.0484C53.3439 14.1952 53.0527 14.2686 52.6898 14.2686C52.2958 14.2686 51.9787 14.1745 51.7384 13.9863C51.4982 13.798 51.3695 13.5433 51.3522 13.2221H50.3931C50.3931 13.5537 50.4907 13.8619 50.686 14.1469C50.8813 14.4318 51.1518 14.6537 51.4974 14.8126C51.843 14.9715 52.2405 15.051 52.6898 15.051ZM58.0048 15.051C58.2433 15.051 58.4887 15.0164 58.741 14.9473V14.1702C58.5474 14.2116 58.3954 14.2324 58.2848 14.2324C58.0601 14.2324 57.9011 14.1762 57.8078 14.064C57.7145 13.9517 57.6678 13.7834 57.6678 13.5588V10.0824H58.7151V9.34158H57.6678V7.98417H56.7087V9.34158H55.6874V10.0824H56.7087V13.5588C56.7087 14.0355 56.8176 14.4033 57.0353 14.6624C57.2531 14.9214 57.5762 15.051 58.0048 15.051ZM62.4281 15.051C63.3682 15.051 64.0733 14.69 64.5433 13.9681L63.9575 13.5122C63.7812 13.7402 63.5756 13.9232 63.3406 14.0614C63.1055 14.1996 62.8187 14.2686 62.48 14.2686C62.003 14.2686 61.6098 14.0985 61.3005 13.7583C60.9912 13.4181 60.8296 12.9717 60.8158 12.419H64.6159V12.0201C64.6159 11.1255 64.4137 10.4382 64.0093 9.95811C63.605 9.47801 63.0381 9.23796 62.3089 9.23796C61.863 9.23796 61.4491 9.36144 61.0672 9.60839C60.6853 9.85535 60.3881 10.1973 60.1755 10.6342C59.9629 11.0711 59.8567 11.5676 59.8567 12.1237V12.2999C59.8567 13.1357 60.0951 13.8032 60.5721 14.3023C61.0491 14.8014 61.6677 15.051 62.4281 15.051ZM63.6568 11.6315H60.8469C60.9091 11.1238 61.0715 10.7292 61.3342 10.4477C61.5969 10.1662 61.9218 10.0255 62.3089 10.0255C62.7098 10.0255 63.0278 10.1593 63.2628 10.427C63.4978 10.6947 63.6292 11.072 63.6568 11.559V11.6315ZM66.9499 14.9473V10.9528C67.0813 10.6834 67.2644 10.4658 67.4995 10.3C67.7345 10.1343 68.0075 10.0514 68.3186 10.0514C68.7022 10.0514 68.9848 10.1481 69.1663 10.3415C69.3477 10.5349 69.4402 10.8337 69.4436 11.2378V14.9473H70.4027V11.243C70.3924 9.9063 69.7944 9.23796 68.6089 9.23796C67.9177 9.23796 67.3578 9.50737 66.9292 10.0462L66.8981 9.34158H65.9908V14.9473H66.9499ZM77.3104 15.051C77.815 15.051 78.2617 14.9301 78.6505 14.6883C79.0394 14.4465 79.3383 14.1089 79.5474 13.6754C79.7565 13.2419 79.8611 12.7523 79.8611 12.2066V12.1393C79.8611 11.262 79.6252 10.5591 79.1534 10.0306C78.6817 9.50218 78.0638 9.23796 77.3 9.23796C76.8058 9.23796 76.366 9.35712 75.9806 9.59544C75.5952 9.83376 75.2945 10.1723 75.0785 10.6109C74.8625 11.0496 74.7545 11.5435 74.7545 12.0926V12.16C74.7545 13.0304 74.9904 13.7298 75.4622 14.2583C75.9339 14.7867 76.55 15.051 77.3104 15.051ZM77.3104 14.2686C76.8265 14.2686 76.4403 14.0804 76.1517 13.7039C75.8631 13.3274 75.7188 12.8283 75.7188 12.2066C75.7188 11.5055 75.8639 10.9667 76.1543 10.5902C76.4446 10.2137 76.8265 10.0255 77.3 10.0255C77.7839 10.0255 78.1719 10.2163 78.4639 10.5979C78.756 10.9796 78.902 11.4778 78.902 12.0926C78.902 12.78 78.7585 13.3145 78.4717 13.6961C78.1848 14.0778 77.7977 14.2686 77.3104 14.2686ZM82.2884 14.9473V10.9528C82.4198 10.6834 82.6029 10.4658 82.838 10.3C83.073 10.1343 83.346 10.0514 83.6571 10.0514C84.0407 10.0514 84.3233 10.1481 84.5047 10.3415C84.6862 10.5349 84.7787 10.8337 84.7821 11.2378V14.9473H85.7412V11.243C85.7308 9.9063 85.1329 9.23796 83.9474 9.23796C83.2562 9.23796 82.6963 9.50737 82.2677 10.0462L82.2366 9.34158H81.3293V14.9473H82.2884Z" fill="#5F6368"/>
</svg>
