<svg width="167" height="40" viewBox="0 0 167 40" fill="none" xmlns="http://www.w3.org/2000/svg">
<g clip-path="url(#clip0)">
<path fill-rule="evenodd" clip-rule="evenodd" d="M156.548 0.125H9.74461C9.43689 0.125 9.30083 0.125057 9.13061 0.125345C8.95494 0.125643 8.79585 0.126168 8.643 0.126998C8.55366 0.127548 8.46077 0.128457 8.35976 0.129731C8.23862 0.131259 8.1482 0.132654 7.91972 0.136375C7.81956 0.138005 7.77563 0.13871 7.72008 0.139561C6.93325 0.159053 6.31247 0.209219 5.72082 0.31453C5.04645 0.431788 4.4338 0.631268 3.84236 0.929676C3.25152 1.23021 2.71146 1.62082 2.24366 2.08599C1.77475 2.54681 1.38243 3.08368 1.08073 3.67513C0.781746 4.25599 0.582193 4.86533 0.463155 5.54392C0.355814 6.12917 0.304892 6.74141 0.284695 7.52725C0.280612 7.66237 0.277952 7.80087 0.275515 7.98554C0.274916 8.03092 0.27447 8.06726 0.273493 8.14908C0.27172 8.29746 0.27086 8.36369 0.269547 8.4443C0.269547 8.98825 0.269547 8.98825 0.269547 9.5361V30.4648C0.269547 30.9042 0.269547 30.9042 0.269547 31.3386C0.269547 31.4485 0.269547 31.4485 0.269531 31.5566C0.270856 31.64 0.271689 31.7044 0.273493 31.855C0.274456 31.9353 0.274892 31.9707 0.275484 32.0155C0.277923 32.2 0.280589 32.3391 0.284711 32.4773C0.304893 33.2625 0.355816 33.8747 0.463325 34.4609C0.582583 35.1408 0.782562 35.7524 1.08083 36.33C1.38361 36.9207 1.77662 37.4569 2.24444 37.913C2.71033 38.38 3.24979 38.7699 3.84241 39.0685C4.42594 39.3656 5.03576 39.5644 5.72134 39.6875C6.30548 39.7915 6.91087 39.84 7.71971 39.8623C8.04375 39.8694 8.34648 39.873 8.64291 39.873C8.79585 39.8738 8.95494 39.8744 9.13061 39.8747C9.30083 39.8749 9.43689 39.875 9.74461 39.875H156.548C156.82 39.875 156.942 39.875 157.094 39.8747C157.295 39.8745 157.472 39.8739 157.64 39.873C157.937 39.873 158.25 39.8693 158.565 39.8623C159.377 39.8401 159.981 39.7917 160.56 39.6875C161.245 39.5646 161.856 39.3659 162.447 39.0682C163.038 38.7696 163.578 38.3795 164.044 37.9119C164.507 37.4585 164.9 36.9227 165.21 36.3303C165.507 35.7453 165.707 35.1311 165.821 34.4595C165.928 33.8898 165.977 33.3171 166.006 32.4789C166.008 32.3342 166.009 32.1851 166.01 32.0168C166.01 31.8901 166.01 31.7889 166.01 31.5559C166.012 31.4848 166.013 31.412 166.014 31.3369C166.017 31.096 166.018 30.9036 166.018 30.4648V9.5361C166.018 8.98915 166.017 8.74787 166.01 8.4443C166.01 8.21434 166.01 8.11203 166.01 7.98425C166.009 7.81564 166.008 7.66688 166.006 7.52779C165.977 6.68685 165.928 6.11405 165.821 5.54224C165.708 4.87479 165.508 4.26312 165.21 3.67542C164.902 3.08196 164.509 2.54519 164.043 2.08534C163.576 1.62113 163.036 1.2303 162.447 0.929981C161.848 0.630791 161.234 0.431513 160.56 0.314306C159.974 0.208999 159.355 0.158905 158.566 0.139484C158.478 0.138059 158.478 0.138059 158.389 0.136602C158.255 0.1344 158.183 0.133253 158.102 0.132048C157.925 0.129417 157.778 0.127705 157.639 0.126798C157.473 0.125971 157.297 0.12548 157.099 0.125231C156.945 0.125039 156.823 0.125 156.548 0.125Z" fill="black" stroke="#222326"/>
<path fill-rule="evenodd" clip-rule="evenodd" d="M90.0325 18.6666C90.5537 18.9767 91.2291 18.8046 91.539 18.2823C91.8489 17.7609 91.6775 17.0865 91.1548 16.7764C86.7923 14.1881 79.8891 13.9448 75.7365 15.2046C75.1551 15.3811 74.8275 15.9947 75.0035 16.5756C75.1796 17.1562 75.7939 17.484 76.3748 17.3079C79.9923 16.2105 86.243 16.4173 90.0325 18.6666ZM89.9084 21.9982C90.1733 21.568 90.0377 21.0039 89.6068 20.7387C85.9782 18.5099 80.6703 17.8827 76.4005 19.1776C75.9167 19.325 75.6432 19.8357 75.7894 20.3202C75.9365 20.8037 76.4485 21.0769 76.9332 20.9305C80.6709 19.7966 85.4884 20.3588 88.6477 22.2998C89.0786 22.5645 89.6426 22.4293 89.9084 21.9982ZM88.4699 25.1977C88.6811 24.8525 88.5723 24.4014 88.2269 24.1905C85.1282 22.298 81.2868 21.8576 76.8086 22.8808C76.4134 22.9708 76.1672 23.3635 76.2576 23.7576C76.3475 24.1516 76.7405 24.3987 77.1348 24.3084C81.227 23.374 84.7017 23.755 87.4625 25.4414C87.8075 25.6524 88.2587 25.5438 88.4699 25.1977ZM83.0785 8.25C89.5713 8.25 94.8345 13.5105 94.8345 19.9999C94.8345 26.4896 89.5713 31.75 83.0785 31.75C76.5858 31.75 71.3223 26.4896 71.3223 19.9999C71.3223 13.5105 76.5858 8.25 83.0785 8.25ZM103.307 19.0972C105.78 19.6983 106.788 20.6314 106.788 22.3185C106.788 24.3147 105.262 25.6046 102.9 25.6046C101.231 25.6046 99.684 25.0116 98.4261 23.8893C98.3723 23.8418 98.3664 23.7599 98.413 23.705L99.5243 22.3832C99.547 22.3558 99.5797 22.3393 99.6154 22.3363C99.6494 22.3343 99.6862 22.345 99.713 22.368C100.794 23.3037 101.761 23.7026 102.945 23.7026C104.012 23.7026 104.675 23.2413 104.675 22.4992C104.675 21.8294 104.347 21.4549 102.405 21.0077C100.123 20.4564 98.8022 19.7423 98.8022 17.7253C98.8022 15.8444 100.333 14.5299 102.525 14.5299C104.015 14.5299 105.291 14.9714 106.423 15.8797C106.478 15.9237 106.489 16.0028 106.448 16.0604L105.457 17.4567C105.436 17.4862 105.405 17.5056 105.369 17.5109C105.334 17.5165 105.298 17.5079 105.269 17.4865C104.317 16.7774 103.41 16.4329 102.495 16.4329C101.55 16.4329 100.915 16.8864 100.915 17.5606C100.915 18.2739 101.277 18.6135 103.307 19.0972ZM113.846 21.3583C113.846 19.9566 112.947 18.9397 111.71 18.9397C110.468 18.9397 109.53 19.9791 109.53 21.3583C109.53 22.7377 110.468 23.777 111.71 23.777C112.968 23.777 113.846 22.7829 113.846 21.3583ZM112.131 17.0964C114.033 17.0964 115.959 18.5603 115.959 21.3583C115.959 24.1558 114.033 25.6193 112.131 25.6193C111.108 25.6193 110.268 25.2399 109.576 24.4631V27.7228C109.576 27.7962 109.516 27.856 109.443 27.856H107.625C107.552 27.856 107.492 27.7962 107.492 27.7228V17.3957C107.492 17.3223 107.552 17.2625 107.625 17.2625H109.443C109.516 17.2625 109.576 17.3223 109.576 17.3957V18.3251C110.268 17.4994 111.108 17.0964 112.131 17.0964ZM120.894 23.7919C122.21 23.7919 123.164 22.7816 123.164 21.3888C123.164 20.0006 122.176 18.9543 120.864 18.9543C119.557 18.9543 118.609 19.9653 118.609 21.3583C118.609 22.7456 119.591 23.7919 120.894 23.7919ZM120.894 17.0964C123.336 17.0964 125.247 18.9684 125.247 21.3583C125.247 23.7562 123.323 25.6351 120.864 25.6351C118.432 25.6351 116.526 23.7697 116.526 21.3888C116.526 18.9816 118.445 17.0964 120.894 17.0964ZM130.478 17.2625C130.552 17.2625 130.611 17.3223 130.611 17.3957V18.9569C130.611 19.0302 130.552 19.0899 130.478 19.0899H128.478V22.8451C128.478 23.4382 128.739 23.7026 129.322 23.7026C129.7 23.7026 130.038 23.6214 130.389 23.4453C130.429 23.4253 130.478 23.4265 130.518 23.4514C130.557 23.4755 130.581 23.5187 130.581 23.5646V25.0513C130.581 25.0987 130.555 25.1434 130.514 25.1665C130.004 25.4554 129.463 25.59 128.811 25.59C127.208 25.59 126.395 24.7623 126.395 23.1298V19.0899H125.521C125.448 19.0899 125.389 19.0302 125.389 18.9569V17.3957C125.389 17.3223 125.448 17.2625 125.521 17.2625H126.395V15.2188C126.395 15.1454 126.455 15.0858 126.528 15.0858H128.346C128.419 15.0858 128.478 15.1454 128.478 15.2188V17.2625H130.478ZM137.447 17.2705H140.551C140.607 17.2705 140.656 17.3045 140.675 17.3561L142.799 22.8932L144.737 17.3598C144.755 17.3065 144.806 17.2705 144.863 17.2705H146.755C146.799 17.2705 146.839 17.2923 146.864 17.3282C146.889 17.3647 146.894 17.4109 146.878 17.4518L143.725 25.5954C143.071 27.2763 142.329 27.9013 140.987 27.9013C140.27 27.9013 139.689 27.7527 139.046 27.4046C138.985 27.3715 138.96 27.2966 138.989 27.2327L139.605 25.8819C139.62 25.8481 139.649 25.8225 139.684 25.8101C139.719 25.7993 139.757 25.8022 139.789 25.8201C140.134 26.0086 140.471 26.1042 140.792 26.1042C141.188 26.1042 141.478 25.974 141.773 25.3194L139.174 19.0899H137.477V25.3211C137.477 25.3945 137.417 25.4541 137.343 25.4541H135.526C135.453 25.4541 135.393 25.3945 135.393 25.3211V19.0899H134.52C134.447 19.0899 134.387 19.0302 134.387 18.9569V17.3877C134.387 17.3145 134.447 17.2547 134.52 17.2547H135.393V16.8702C135.393 15.0837 136.281 14.1388 137.96 14.1388C138.649 14.1388 139.11 14.2488 139.47 14.3557C139.526 14.373 139.564 14.4249 139.564 14.4833V16.0141C139.564 16.0567 139.544 16.097 139.509 16.1221C139.475 16.1472 139.431 16.1538 139.389 16.1406C139.048 16.027 138.744 15.9518 138.365 15.9518C137.73 15.9518 137.447 16.2811 137.447 17.0195V17.2705ZM133.407 17.2625C133.48 17.2625 133.54 17.3223 133.54 17.3957V25.3211C133.54 25.3945 133.48 25.4541 133.407 25.4541H131.589C131.516 25.4541 131.456 25.3945 131.456 25.3211V17.3957C131.456 17.3223 131.516 17.2625 131.589 17.2625H133.407ZM132.507 13.6539C133.227 13.6539 133.811 14.2366 133.811 14.9563C133.811 15.6762 133.227 16.2595 132.507 16.2595C131.787 16.2595 131.203 15.6762 131.203 14.9563C131.203 14.2366 131.787 13.6539 132.507 13.6539ZM148.504 18.051H148.171V18.4754H148.504C148.67 18.4754 148.77 18.3941 148.77 18.263C148.77 18.1249 148.67 18.051 148.504 18.051ZM148.72 18.6564L149.082 19.1626H148.777L148.451 18.6983H148.171V19.1626H147.916V17.8208H148.515C148.826 17.8208 149.032 17.9802 149.032 18.2488C149.032 18.4688 148.904 18.6032 148.72 18.6564ZM148.437 17.3742C147.781 17.3742 147.286 17.8948 147.286 18.5322C147.286 19.1692 147.778 19.6829 148.43 19.6829C149.085 19.6829 149.581 19.1626 149.581 18.5249C149.581 17.8878 149.088 17.3742 148.437 17.3742ZM148.43 19.8107C147.71 19.8107 147.151 19.2333 147.151 18.5322C147.151 17.8309 147.718 17.2471 148.437 17.2471C149.156 17.2471 149.716 17.8243 149.716 18.5249C149.716 19.226 149.149 19.8107 148.43 19.8107Z" fill="#1ED760"/>
<path fill-rule="evenodd" clip-rule="evenodd" d="M19.8716 22.904H15.9893V16.8775H17.1694V21.782H19.8716V22.904ZM22.686 22.904H21.4888V16.8775H22.686V22.904ZM28.9552 18.314L27.8948 18.637C27.835 18.3055 27.5613 17.787 26.7917 17.787C26.2187 17.787 25.8425 18.1525 25.8425 18.552C25.8425 18.8835 26.0562 19.147 26.5009 19.232L27.3475 19.3935C28.4507 19.606 29.0407 20.32 29.0407 21.17C29.0407 22.0965 28.2625 23.0315 26.8515 23.0315C25.2438 23.0315 24.5341 22.003 24.44 21.1445L25.5346 20.8555C25.5859 21.4505 26.0049 21.986 26.8601 21.986C27.4929 21.986 27.8435 21.6715 27.8435 21.2465C27.8435 20.898 27.5784 20.626 27.1081 20.5325L26.2615 20.3625C25.2952 20.167 24.6709 19.5465 24.6709 18.637C24.6709 17.566 25.6372 16.75 26.7831 16.75C28.254 16.75 28.8184 17.634 28.9552 18.314ZM35.3441 17.991H33.4286V22.904H32.2399V17.991H30.3244V16.8775H35.3441V17.991ZM40.7581 22.904H36.9613V16.8775H40.7581V17.9825H38.1414V19.3595H40.5102V20.405H38.1414V21.799H40.7581V22.904ZM47.8483 22.904H46.6083L43.8547 18.6285V22.904H42.6746V16.8775H44.1455L46.6682 20.864V16.8775H47.8483V22.904ZM53.5711 19.8865C53.5711 21.2465 54.5289 21.8925 55.461 21.8925C56.4016 21.8925 57.3594 21.2465 57.3594 19.8865C57.3594 18.5265 56.4016 17.8805 55.461 17.8805C54.5289 17.8805 53.5711 18.5265 53.5711 19.8865ZM52.3482 19.895C52.3482 17.9485 53.8191 16.75 55.461 16.75C57.1114 16.75 58.5823 17.9485 58.5823 19.895C58.5823 21.833 57.1114 23.0315 55.461 23.0315C53.8191 23.0315 52.3482 21.833 52.3482 19.895ZM65.5869 22.904H64.3469L61.5933 18.6285V22.904H60.4132V16.8775H61.8841L64.4068 20.864V16.8775H65.5869V22.904Z" fill="white"/>
</g>
<defs>
<clipPath id="clip0">
<rect width="166" height="40" fill="white" transform="translate(0.143555)"/>
</clipPath>
</defs>
</svg>
